<svg id="visual" viewBox="0 0 900 600" width="900" height="600" xmlns="http://www.w3.org/2000/svg" xmlns:xlink="http://www.w3.org/1999/xlink" version="1.1"><g transform="translate(925.5240482855809 518.5438068043321)"><path d="M269.5 -373.4C385.5 -344.8 540.7 -331.3 609.4 -256.2C678 -181.1 660.2 -44.4 652.4 102.4C644.7 249.1 646.9 405.8 569.9 492.6C492.8 579.4 336.4 596.3 203.4 587.1C70.3 577.9 -39.3 542.8 -139.6 501.5C-239.9 460.2 -330.8 412.8 -454.5 349.6C-578.1 286.3 -734.5 207.2 -708.6 126C-682.7 44.8 -474.6 -38.4 -346.4 -91.3C-218.2 -144.2 -169.9 -166.8 -125.5 -228C-81.1 -289.2 -40.5 -389.1 18.1 -417.3C76.8 -445.5 153.5 -401.9 269.5 -373.4" fill="#00c195"></path></g></svg>