<svg id="visual" viewBox="0 0 900 900" width="900" height="900" xmlns="http://www.w3.org/2000/svg" xmlns:xlink="http://www.w3.org/1999/xlink" version="1.1"><g transform="translate(-61.305808524882934 -33.52910831344869)"><path d="M222.2 -238.1C308.5 -192.3 413.3 -141.8 422.7 -76.3C432.2 -10.7 346.5 69.9 292.2 173.2C237.9 276.5 215.1 402.6 155.7 421.5C96.2 440.5 0 352.4 -83.5 294C-166.9 235.5 -237.6 206.8 -271.1 154C-304.7 101.2 -301 24.4 -300.4 -65.8C-299.8 -156 -302.3 -259.6 -252.7 -311.8C-203.1 -364.1 -101.6 -365 -16.8 -345C67.9 -324.9 135.8 -283.9 222.2 -238.1" fill="#00c195"></path></g></svg>