<svg id="visual" viewBox="0 0 900 600" width="900" height="600" xmlns="http://www.w3.org/2000/svg" xmlns:xlink="http://www.w3.org/1999/xlink" version="1.1"><g transform="translate(875.33959547622 392.05011108744134)"><path d="M146.6 -229.4C183.6 -204.3 202.8 -152.8 282.6 -94.8C362.4 -36.7 502.9 27.9 565.2 130.8C627.4 233.7 611.5 374.9 543 491.4C474.5 607.9 353.5 699.7 242.6 653.2C131.8 606.7 31.1 421.9 -89.5 360.9C-210.1 299.9 -350.7 362.8 -444.3 338.4C-538 314 -584.7 202.4 -534.1 117.2C-483.5 32 -335.6 -26.9 -250.4 -73.3C-165.3 -119.7 -142.9 -153.6 -111.6 -181.3C-80.4 -209.1 -40.2 -230.5 7.3 -241.9C54.8 -253.2 109.6 -254.5 146.6 -229.4" fill="#FF0066"></path></g></svg>