<svg id="visual" viewBox="0 0 900 600" width="900" height="600" xmlns="http://www.w3.org/2000/svg" xmlns:xlink="http://www.w3.org/1999/xlink" version="1.1"><g transform="translate(77.7300399953134 61.24973769286299)"><path d="M231.7 -302.9C303.5 -266.7 367.2 -203.3 354.6 -139.4C342.1 -75.5 253.3 -11 218.3 63C183.4 137 202.2 220.6 174.8 211.7C147.3 202.8 73.7 101.4 28.4 62.3C-16.8 23.2 -33.7 46.4 -114.4 72.6C-195.1 98.8 -339.6 128.1 -426.3 85.6C-512.9 43.1 -541.8 -71.2 -474.5 -115.9C-407.3 -160.6 -243.9 -135.7 -148.8 -164.3C-53.7 -192.9 -26.8 -274.9 26.5 -311.5C79.9 -348 159.9 -339.1 231.7 -302.9" fill="#00c195"></path></g></svg>